<svg viewBox="0 0 575 575" class="roots-wrapper">
    <g transform="rotate(0 0 0)">
        <svg viewBoxSize="575" data-root-id="3018891194074" xmlns="http://www.w3.org/2000/svg"
            xmlns:xlink="http://www.w3.org/1999/xlink" id="Capa_1" dataName="Capa 1"
            viewBox="0 0 340.1600036621094 512.010009765625" height="519.8476680666797"
            width="345.366943359375" y="0" x="114.817" preserveAspectRatio="xMinYMin" zoom="1"
            editorType="buyer" data-layer-role="icon"
            style="position: absolute; height: 519.848px; width: 345.367px; top: 0px; left: 114.817px;">
            <rect class="cls-2" width="340.16" height="512" name="Layer %{number}" zoom="1"
                data-layer-id="1464597994074" style="fill: none;"></rect>
            <path class="cls-3"
                d="M198.42,341.92c0-15.66-12.69-28.35-28.35-28.35s-28.35,12.69-28.35,28.35,12.69,28.35,28.35,28.35,28.35-12.69,28.35-28.35"
                name="Layer %{number}" zoom="1" data-layer-id="7092903894074"
                style="fill: rgb(233, 144, 7); fill-opacity: 0.89;"></path>
            <path class="cls-3"
                d="M267.69,0H72.47C32.51,0,0,32.51,0,72.47v367.07c0,39.96,32.51,72.47,72.47,72.47h22.02c27.14,0,52.8-6.42,75.58-17.79,22.79,11.36,48.45,17.79,75.6,17.79h22.02c39.96,0,72.47-32.51,72.47-72.47V72.47C340.16,32.51,307.65,0,267.69,0M302.36,439.54c0,19.12-15.55,34.67-34.67,34.67h-22.02c-72.94,0-132.28-59.34-132.28-132.28,0-31.26,25.43-56.69,56.69-56.69s56.69,25.43,56.69,56.69c0,37.76-15.93,71.85-41.38,95.97,11.37,7.16,24.09,12.39,37.69,15.15,25.81-29.83,41.48-68.67,41.48-111.12,0-52.1-42.38-94.49-94.49-94.49s-94.49,42.39-94.49,94.49,21.96,95.54,56.77,126.7c-12,3.61-24.71,5.58-37.87,5.58h-22.02c-19.12,0-34.67-15.55-34.67-34.67V72.47c0-19.12,15.55-34.68,34.67-34.68h195.22c19.12,0,34.67,15.55,34.67,34.68v367.07Z"
                name="Layer %{number}" zoom="1" data-layer-id="3835254194074"
                style="fill: rgb(233, 144, 7); fill-opacity: 0.89;"></path>
            <path class="cls-3"
                d="M202.75,56.69h-65.35c-10.39,0-18.89,8.5-18.89,18.89s8.5,18.9,18.89,18.9h65.35c10.39,0,18.89-8.51,18.89-18.9s-8.5-18.89-18.89-18.89"
                name="Layer %{number}" zoom="1" data-layer-id="7166363294074"
                style="fill: rgb(233, 144, 7); fill-opacity: 0.89;"></path>
        </svg>
    </g>
    <g transform="rotate(0 0 0)">
        <svg viewBoxSize="575" data-root-id="8690914594074" xmlns="http://www.w3.org/2000/svg"
            y="377.0050048828125" viewBox="0 0 0 0" x="287.49999847412107" height="0" width="0"
            fontUrl="https://fonts.gstatic.com/s/opensans/v43/memSYaGs126MiZpBA-UvWbX2vVnXBbObj2OVZyOOSr4dVJWUgsgH1y4nY1M2xLER.ttf"
            zoom="1" editorType="buyer" data-layer-role="slogan"
            style="position: absolute; top: 377.005px; width: 0px; height: 0px; left: 287.5px;">
            <g data-horizontal-grow="center" zoom="1" root="[object Object]"
                style="fill: rgb(242, 145, 0); fill-opacity: 1;">
                <path d="" transform="translate(0, 0)"></path>
            </g>
        </svg>
    </g>
    <g transform="rotate(0 0 0)">
        <svg viewBoxSize="575" data-root-id="7202406594074" xmlns="http://www.w3.org/2000/svg"
            y="521.27"
            viewBox="2.819999933242798 18.90999984741211 265.16998291015625 53.72999954223633"
            x="154.915" height="53.72999954223633" width="265.16998291015625"
            fontUrl="https://fonts.gstatic.com/s/poppins/v23/pxiByp8kv8JHgFVrLEj6V1tvFP-KUEg.ttf"
            zoom="1" editorType="buyer" data-layer-role="brandName"
            style="position: absolute; top: 521.27px; width: 265.17px; height: 53.73px; left: 154.915px;">
            <g data-horizontal-grow="center" zoom="1" root="[object Object]"
                style="fill: rgb(242, 145, 0); fill-opacity: 1;">
                <path
                    d="M17.14 58.43Q13.10 58.43 9.87 57.05Q6.63 55.67 4.75 53.07Q2.87 50.47 2.82 46.93L2.82 46.93L11.11 46.93Q11.28 49.31 12.80 50.69Q14.32 52.07 16.97 52.07L16.97 52.07Q19.68 52.07 21.23 50.77Q22.78 49.48 22.78 47.37L22.78 47.37Q22.78 45.66 21.72 44.56Q20.67 43.45 19.10 42.81Q17.52 42.18 14.76 41.40L14.76 41.40Q11.00 40.30 8.65 39.22Q6.30 38.14 4.62 35.96Q2.93 33.78 2.93 30.13L2.93 30.13Q2.93 26.70 4.64 24.16Q6.36 21.61 9.45 20.26Q12.55 18.91 16.53 18.91L16.53 18.91Q22.50 18.91 26.23 21.81Q29.96 24.71 30.35 29.91L30.35 29.91L21.84 29.91Q21.72 27.92 20.15 26.62Q18.57 25.32 15.98 25.32L15.98 25.32Q13.71 25.32 12.35 26.48Q11.00 27.64 11.00 29.85L11.00 29.85Q11.00 31.40 12.02 32.42Q13.05 33.44 14.57 34.08Q16.09 34.72 18.85 35.54L18.85 35.54Q22.61 36.65 24.99 37.76Q27.36 38.86 29.08 41.07Q30.79 43.28 30.79 46.88L30.79 46.88Q30.79 49.97 29.19 52.63Q27.58 55.28 24.49 56.85Q21.39 58.43 17.14 58.43L17.14 58.43ZM54.45 26.98Q59.92 26.98 63.29 30.43Q66.67 33.89 66.67 40.08L66.67 40.08L66.67 58.04L58.93 58.04L58.93 41.13Q58.93 37.48 57.10 35.52Q55.28 33.55 52.13 33.55L52.13 33.55Q48.92 33.55 47.07 35.52Q45.22 37.48 45.22 41.13L45.22 41.13L45.22 58.04L37.48 58.04L37.48 27.42L45.22 27.42L45.22 31.23Q46.77 29.24 49.17 28.11Q51.58 26.98 54.45 26.98L54.45 26.98ZM72.03 42.62Q72.03 37.98 73.88 34.38Q75.73 30.79 78.91 28.86Q82.09 26.92 86.01 26.92L86.01 26.92Q89.44 26.92 92.01 28.30Q94.58 29.69 96.13 31.79L96.13 31.79L96.13 27.42L103.93 27.42L103.93 58.04L96.13 58.04L96.13 53.57Q94.64 55.72 92.01 57.13Q89.39 58.54 85.96 58.54L85.96 58.54Q82.09 58.54 78.91 56.55Q75.73 54.56 73.88 50.94Q72.03 47.32 72.03 42.62L72.03 42.62ZM96.13 42.73Q96.13 39.91 95.03 37.89Q93.92 35.88 92.04 34.80Q90.16 33.72 88.00 33.72L88.00 33.72Q85.85 33.72 84.02 34.77Q82.20 35.82 81.07 37.84Q79.93 39.86 79.93 42.62L79.93 42.62Q79.93 45.38 81.07 47.46Q82.20 49.53 84.05 50.64Q85.90 51.74 88.00 51.74L88.00 51.74Q90.16 51.74 92.04 50.66Q93.92 49.59 95.03 47.57Q96.13 45.55 96.13 42.73L96.13 42.73ZM119.24 31.84Q120.73 29.74 123.36 28.33Q125.98 26.92 129.35 26.92L129.35 26.92Q133.28 26.92 136.46 28.86Q139.64 30.79 141.49 34.36Q143.34 37.92 143.34 42.62L143.34 42.62Q143.34 47.32 141.49 50.94Q139.64 54.56 136.46 56.55Q133.28 58.54 129.35 58.54L129.35 58.54Q125.98 58.54 123.41 57.16Q120.84 55.78 119.24 53.68L119.24 53.68L119.24 72.64L111.50 72.64L111.50 27.42L119.24 27.42L119.24 31.84ZM135.43 42.62Q135.43 39.86 134.30 37.84Q133.17 35.82 131.32 34.77Q129.46 33.72 127.31 33.72L127.31 33.72Q125.21 33.72 123.36 34.80Q121.50 35.88 120.37 37.92Q119.24 39.97 119.24 42.73L119.24 42.73Q119.24 45.49 120.37 47.54Q121.50 49.59 123.36 50.66Q125.21 51.74 127.31 51.74L127.31 51.74Q129.46 51.74 131.32 50.64Q133.17 49.53 134.30 47.49Q135.43 45.44 135.43 42.62L135.43 42.62ZM182.31 19.46L191.05 19.46L191.05 58.04L183.31 58.04L183.31 32.95L172.97 58.04L167.11 58.04L156.72 32.95L156.72 58.04L148.98 58.04L148.98 19.46L157.77 19.46L170.04 48.15L182.31 19.46ZM196.68 42.62Q196.68 37.98 198.54 34.38Q200.39 30.79 203.57 28.86Q206.74 26.92 210.67 26.92L210.67 26.92Q214.10 26.92 216.67 28.30Q219.24 29.69 220.79 31.79L220.79 31.79L220.79 27.42L228.58 27.42L228.58 58.04L220.79 58.04L220.79 53.57Q219.29 55.72 216.67 57.13Q214.04 58.54 210.61 58.54L210.61 58.54Q206.74 58.54 203.57 56.55Q200.39 54.56 198.54 50.94Q196.68 47.32 196.68 42.62L196.68 42.62ZM220.79 42.73Q220.79 39.91 219.68 37.89Q218.57 35.88 216.70 34.80Q214.82 33.72 212.66 33.72L212.66 33.72Q210.50 33.72 208.68 34.77Q206.86 35.82 205.72 37.84Q204.59 39.86 204.59 42.62L204.59 42.62Q204.59 45.38 205.72 47.46Q206.86 49.53 208.71 50.64Q210.56 51.74 212.66 51.74L212.66 51.74Q214.82 51.74 216.70 50.66Q218.57 49.59 219.68 47.57Q220.79 45.55 220.79 42.73L220.79 42.73ZM243.89 31.84Q245.39 29.74 248.01 28.33Q250.64 26.92 254.01 26.92L254.01 26.92Q257.93 26.92 261.11 28.86Q264.29 30.79 266.14 34.36Q267.99 37.92 267.99 42.62L267.99 42.62Q267.99 47.32 266.14 50.94Q264.29 54.56 261.11 56.55Q257.93 58.54 254.01 58.54L254.01 58.54Q250.64 58.54 248.07 57.16Q245.50 55.78 243.89 53.68L243.89 53.68L243.89 72.64L236.15 72.64L236.15 27.42L243.89 27.42L243.89 31.84ZM260.09 42.62Q260.09 39.86 258.96 37.84Q257.82 35.82 255.97 34.77Q254.12 33.72 251.96 33.72L251.96 33.72Q249.86 33.72 248.01 34.80Q246.16 35.88 245.03 37.92Q243.89 39.97 243.89 42.73L243.89 42.73Q243.89 45.49 245.03 47.54Q246.16 49.59 248.01 50.66Q249.86 51.74 251.96 51.74L251.96 51.74Q254.12 51.74 255.97 50.64Q257.82 49.53 258.96 47.49Q260.09 45.44 260.09 42.62L260.09 42.62Z"
                    transform="translate(0, 0)"></path>
            </g>
        </svg>
    </g>
</svg>